<svg fill="none" height="48" viewBox="0 0 134 48" width="134" xmlns="http://www.w3.org/2000/svg"><g clip-rule="evenodd" fill-rule="evenodd"><path d="m40.964 14h14v3h-11v8h9v3h-9v6h-3zm21 0h-3v20h14v-3h-11zm15 0h-3l7 11v9h3v-9l7-11h-3l-5.5 8.643zm18 20v-20h3l12 16v-16h3v20h-3l-12-16v16zm22-20h17v3h-7v17h-3v-17h-7z" fill="#252525"/><path d="m12.561.877-6.991 13.985 6.551 6.551 1.855-.741zm-7.464 14.928-5.074 10.148 8.685 4.342 2.72-8.16-6.33-6.33zm-4.723 11.441 2.626 8.754 9.306 7.445-3.721-12.093-8.211-4.106zm13.046 16.418 9.184-7.347-.04-.07-8.284-14.62-1.88.751-2.875 8.628zm9.779-8.327 2.8-9.337-12.413-24.83 1.405 19.682 8.209 14.485z" fill="#2d46eb"/></g></svg>